<?xml version="1.0" ?><!DOCTYPE svg  PUBLIC '-//W3C//DTD SVG 1.1//EN'  'http://www.w3.org/Graphics/SVG/1.1/DTD/svg11.dtd'><svg height="100%" style="fill-rule:evenodd;clip-rule:evenodd;stroke-linejoin:round;stroke-miterlimit:2;" version="1.1" viewBox="0 0 100 100" width="100%" xml:space="preserve" xmlns="http://www.w3.org/2000/svg" xmlns:serif="http://www.serif.com/" xmlns:xlink="http://www.w3.org/1999/xlink"><g transform="matrix(1,0,0,1,-650,-650)"><g id="Layer1"><path d="M697.311,723.36L655.191,715.933L655.191,654.5L700,662.401L744.809,654.5L744.809,715.933L702.689,723.36C701.978,722.715 701.035,722.321 700,722.321C698.965,722.321 698.022,722.715 697.311,723.36Z" style="fill:rgb(242,175,13);"/><path d="M700,666.817C700,666.817 680.917,663.452 670.948,661.694C669.381,661.418 667.878,661.794 666.77,662.742C665.662,663.689 665.039,665.129 665.039,666.745C665.039,680.434 665.039,712.439 665.039,712.439L700,718.603L700,666.817Z" style="fill:rgb(235,235,235);"/><path d="M700,666.817C700,666.817 717.708,663.694 727.919,661.894C729.665,661.586 731.459,662.066 732.817,663.206C734.176,664.346 734.961,666.029 734.961,667.803C734.961,682.011 734.961,712.439 734.961,712.439L700,718.603L700,666.817Z" style="fill:rgb(235,235,235);"/><path d="M702.689,723.36L744.809,715.933L744.809,720.807L703.596,728.074C703.855,727.545 704,726.95 704,726.321C704,725.148 703.494,724.092 702.689,723.36Z" style="fill:rgb(242,13,13);"/><path d="M697.311,723.36C696.506,724.092 696,725.148 696,726.321C696,726.95 696.145,727.545 696.404,728.074L655.191,720.807L655.191,715.933L697.311,723.36Z" style="fill:rgb(242,13,13);"/><path d="M689.749,726.901C689.749,726.901 695.281,727.864 696.404,728.074L663.816,745.124L663.816,740.25L689.749,726.901Z" style="fill:rgb(242,13,13);"/><path d="M710.323,726.888C710.323,726.888 705.769,727.671 703.569,728.127L736.184,745.124L736.184,740.25L710.323,726.888Z" style="fill:rgb(242,13,13);"/><path d="M663.816,740.25L668.293,723.238L689.749,726.901L663.816,740.25Z" style="fill:rgb(229,242,13);"/><g transform="matrix(-1,0,0,1,1353.57,0)"><path d="M617.383,740.25L621.86,723.238L643.316,726.901L617.383,740.25Z" style="fill:rgb(229,242,13);"/></g><circle cx="700" cy="726.321" r="4" style="fill:rgb(242,13,13);"/><path d="M746.309,720.807L746.309,654.5C746.309,654.057 746.113,653.636 745.773,653.351C745.433,653.066 744.985,652.946 744.548,653.023L700,660.878C700,660.878 655.452,653.023 655.452,653.023C655.015,652.946 654.567,653.066 654.227,653.351C653.887,653.636 653.691,654.057 653.691,654.5L653.691,720.807C653.691,721.535 654.214,722.158 654.931,722.285L666.458,724.317L662.368,739.859C662.359,739.892 662.314,740.179 662.316,740.28L662.316,745.124C662.316,745.649 662.59,746.136 663.039,746.407C663.488,746.679 664.046,746.697 664.511,746.453L695.928,730.016C696.935,731.125 698.387,731.821 700,731.821C701.592,731.821 703.028,731.143 704.032,730.059L735.491,746.454C735.956,746.697 736.513,746.679 736.962,746.407C737.41,746.135 737.684,745.649 737.684,745.124L737.684,740.28C737.686,740.179 737.641,739.892 737.632,739.859L733.542,724.317L745.069,722.285C745.786,722.158 746.309,721.535 746.309,720.807ZM710.084,728.453L734.684,741.164C734.684,741.164 734.684,742.651 734.684,742.651L708.11,728.802L710.084,728.453ZM689.986,728.466L691.807,728.787C691.369,729.016 665.316,742.647 665.316,742.647C665.316,742.647 665.316,741.165 665.316,741.165L689.986,728.466ZM666.124,737.375L685.104,727.605L669.423,724.84L666.124,737.375ZM714.957,727.594L733.875,737.369L730.577,724.84L714.957,727.594ZM700,723.821C701.38,723.821 702.5,724.941 702.5,726.321C702.5,727.701 701.38,728.821 700,728.821C698.62,728.821 697.5,727.701 697.5,726.321C697.5,724.941 698.62,723.821 700,723.821ZM743.309,717.721L705.171,724.446C705.373,725 705.487,725.595 705.499,726.216L743.309,719.549L743.309,717.721ZM656.691,719.549C656.691,719.549 692.544,725.865 694.501,726.21C694.513,725.592 694.628,724.998 694.829,724.446L656.691,717.721L656.691,719.549ZM700,720.821C701.709,720.821 703.076,721.762 703.084,721.767C703.084,721.767 743.309,714.675 743.309,714.675C743.309,714.675 743.309,656.288 743.309,656.288L700.26,663.878C700.088,663.909 699.912,663.909 699.74,663.878C699.74,663.878 656.691,656.288 656.691,656.288L656.691,714.675L696.916,721.767C696.916,721.767 698.112,720.821 700,720.821ZM699.74,720.08C699.914,720.111 700.26,720.08 700.26,720.08L735.221,713.916C735.938,713.79 736.461,713.167 736.461,712.439C736.461,712.439 736.461,682.011 736.461,667.803C736.461,665.586 735.48,663.482 733.782,662.057C732.083,660.632 729.842,660.031 727.658,660.416L700,665.293L671.209,660.217C669.176,659.858 667.233,660.373 665.795,661.601C664.368,662.821 663.539,664.664 663.539,666.745C663.539,680.434 663.539,712.439 663.539,712.439C663.539,713.167 664.062,713.79 664.779,713.916L699.74,720.08ZM668.956,663.24C668.509,663.366 668.098,663.58 667.745,663.882C666.955,664.556 666.539,665.594 666.539,666.745C666.539,666.745 666.539,711.18 666.539,711.18C666.539,711.18 698.5,716.816 698.5,716.816L698.5,714.277L698.5,714.277L670.195,709.286C669.478,709.16 668.956,708.537 668.956,707.809L668.956,663.24ZM731.044,663.814L731.044,707.809C731.044,708.537 730.522,709.16 729.805,709.286L701.5,714.337L701.5,716.816L733.461,711.18L733.461,667.803C733.461,666.472 732.872,665.21 731.853,664.355C731.602,664.144 731.33,663.963 731.044,663.814ZM728.044,663.395L701.5,668.075L701.5,676.478L723.375,672.621C724.19,672.477 724.969,673.023 725.113,673.838C725.256,674.653 724.711,675.432 723.896,675.576L701.5,679.525L701.5,682.571L723.375,678.714C724.19,678.57 724.969,679.115 725.113,679.931C725.256,680.746 724.711,681.524 723.896,681.668L701.5,685.617L701.5,688.664L723.375,684.806C724.19,684.663 724.969,685.208 725.113,686.023C725.256,686.838 724.711,687.617 723.896,687.761L701.5,691.71L701.5,694.756L723.375,690.899C724.19,690.755 724.969,691.3 725.113,692.116C725.256,692.931 724.711,693.71 723.896,693.853L701.5,697.802L701.5,700.849L723.375,696.991C724.19,696.848 724.969,697.393 725.113,698.208C725.256,699.024 724.711,699.802 723.896,699.946L701.5,703.895L701.5,711.29L728.044,706.55L728.044,663.395ZM671.956,706.55L698.5,711.231L698.5,703.895L676.104,699.946C675.289,699.802 674.744,699.024 674.887,698.208C675.031,697.393 675.81,696.848 676.625,696.991L698.5,700.849L698.5,697.802L676.104,693.853C675.289,693.71 674.744,692.931 674.887,692.116C675.031,691.3 675.81,690.755 676.625,690.899L698.5,694.756L698.5,691.71L676.104,687.761C675.289,687.617 674.744,686.838 674.887,686.023C675.031,685.208 675.81,684.663 676.625,684.806L698.5,688.664L698.5,685.617L676.104,681.668C675.289,681.524 674.744,680.746 674.887,679.931C675.031,679.115 675.81,678.57 676.625,678.714L698.5,682.571L698.5,679.525L676.104,675.576C675.289,675.432 674.744,674.653 674.887,673.838C675.031,673.023 675.81,672.477 676.625,672.621L698.5,676.478L698.5,668.075L671.956,663.395L671.956,706.55Z"/></g></g></svg>